<?xml version="1.0" standalone="no"?>
<!DOCTYPE svg PUBLIC "-//W3C//DTD SVG 20010904//EN"
 "http://www.w3.org/TR/2001/REC-SVG-20010904/DTD/svg10.dtd">
<svg version="1.0" xmlns="http://www.w3.org/2000/svg"
 width="512.000000pt" height="512.000000pt" viewBox="0 0 512.000000 512.000000"
 preserveAspectRatio="xMidYMid meet">

<g transform="translate(0.000000,512.000000) scale(0.100000,-0.100000)"
fill="#FBAF63" stroke="#fff">
<path d="M1750 4151 c-19 -3 339 -6 795 -6 769 0 835 -1 895 -18 80 -22 152
-49 146 -54 -2 -2 -21 3 -42 11 -108 43 -149 46 -654 46 -267 0 -541 -3 -610
-6 -112 -6 -126 -9 -126 -25 0 -10 2 -16 5 -14 2 3 10 0 17 -6 11 -9 10 -15
-6 -31 -10 -11 -23 -17 -29 -13 -7 4 -11 -3 -12 -17 0 -13 -3 -17 -6 -10 -2 6
-11 12 -19 12 -9 0 -12 -4 -9 -10 3 -5 -2 -18 -12 -28 -29 -28 -103 -73 -112
-67 -5 2 -14 -2 -20 -9 -7 -8 -31 -18 -54 -22 -32 -5 -37 -8 -23 -14 18 -6 18
-7 -5 -13 -13 -4 -33 -7 -44 -7 -11 0 -31 -9 -45 -20 -14 -11 -33 -20 -42 -20
-10 0 -18 -5 -18 -10 0 -7 -20 -10 -48 -9 -28 1 -61 -4 -80 -14 -28 -14 -32
-14 -32 0 0 11 -5 13 -17 7 -10 -4 -41 -9 -70 -12 -48 -3 -52 -2 -65 25 -7 16
-22 28 -33 29 -43 2 -45 4 -39 28 8 33 -2 49 -25 37 -29 -16 -118 -153 -144
-222 -44 -116 -50 -164 -57 -464 l-6 -290 -2 268 c-2 299 5 374 51 492 39 103
86 176 158 247 99 97 209 161 340 198 35 10 54 19 42 19 -12 1 -55 -11 -95
-25 -285 -102 -470 -326 -508 -617 -7 -55 -10 -373 -8 -967 3 -881 4 -885 26
-965 77 -275 228 -433 509 -532 l78 -28 860 0 860 0 75 23 c157 49 307 143
389 244 56 69 104 165 138 275 25 83 27 103 32 363 4 151 6 568 6 925 -1 644
-1 651 -23 735 -26 96 -86 221 -140 293 -107 141 -309 256 -502 287 -70 11
-1578 12 -1640 1z m1015 -296 c24 -23 31 -45 20 -57 -3 -3 -19 7 -35 23 -25
25 -36 29 -87 29 -72 0 -103 -8 -103 -26 0 -8 -6 -14 -13 -14 -8 0 -19 -11
-25 -25 -6 -14 -19 -25 -27 -25 -9 0 -20 11 -25 25 -13 34 -53 34 -68 -1 -9
-18 -19 -24 -35 -22 -34 5 -36 60 -3 93 25 25 26 25 201 25 173 0 176 0 200
-25z m-275 -225 c0 -48 4 -62 18 -68 21 -9 27 -32 9 -32 -17 0 -27 -184 -27
-496 0 -169 -3 -214 -15 -230 -19 -25 -19 -50 0 -58 8 -3 15 -17 15 -31 0 -18
5 -25 19 -25 11 0 26 -7 34 -15 30 -30 -10 -84 -52 -70 -16 5 -24 -5 -45 -50
-13 -30 -29 -55 -34 -55 -5 0 -15 -11 -22 -25 -7 -13 -16 -22 -20 -20 -10 6
-20 -172 -20 -370 0 -173 -6 -255 -20 -255 -17 0 -21 43 -28 319 -3 157 -8
274 -10 258 -2 -16 -8 -25 -14 -21 -6 4 -25 10 -43 14 -31 7 -33 5 -39 -21 -3
-15 -8 -233 -12 -483 l-7 -454 27 -56 c15 -30 39 -65 53 -76 17 -13 21 -20 11
-20 -24 0 -95 84 -108 127 -8 27 -10 209 -8 618 l3 580 29 55 c15 30 40 72 55
93 56 84 70 113 75 156 3 26 15 136 26 246 11 110 27 258 35 329 14 114 13
130 0 140 -9 7 -12 19 -9 34 6 20 13 22 65 22 l59 0 0 -60z m274 44 c10 -25 7
-34 -9 -34 -9 0 -15 -9 -15 -21 0 -58 71 -709 81 -739 6 -19 36 -72 65 -117
94 -142 89 -107 92 -545 2 -267 0 -388 -7 -388 -6 0 -12 -12 -13 -27 -1 -16
-5 152 -8 372 -6 454 -3 432 -94 569 -56 84 -70 122 -80 216 -3 30 -17 161
-31 290 -30 284 -42 429 -36 435 11 11 49 4 55 -11z m107 -47 c-10 -9 -11 -8
-5 6 3 10 9 15 12 12 3 -3 0 -11 -7 -18z m-123 -960 c11 -12 31 -45 44 -72 21
-46 23 -63 21 -205 -2 -194 -21 -266 -23 -85 -1 209 -16 277 -73 342 -10 12
-16 26 -12 32 9 16 19 14 43 -12z m-262 -428 c-3 -34 -6 -74 -6 -90 0 -27 -1
-27 -52 -22 -29 3 -55 7 -57 9 -7 7 42 106 67 136 13 15 31 28 39 28 13 0 15
-10 9 -61z m-459 -891 c-2 -8 -24 -14 -53 -15 -57 -2 -78 3 -69 17 10 15 128
13 122 -2z"/>
<path d="M1352 3930 c-22 -18 -23 -40 -1 -40 6 0 8 4 5 9 -3 5 1 12 10 15 8 3
13 10 10 15 -4 5 0 12 6 14 7 3 9 6 3 6 -5 0 -20 -8 -33 -19z"/>
</g>
</svg>
